inDegrees=yes
name=ik_S41_A12_T02
DataType=double
version=3
OpenSimVersion=4.3-2021-08-27-4bc7ad9
endheader
time	pelvis_tilt	pelvis_list	pelvis_rotation	pelvis_tx	pelvis_ty	pelvis_tz	hip_flexion_r	hip_adduction_r	hip_rotation_r	knee_angle_r	knee_angle_r_beta	ankle_angle_r	subtalar_angle_r	mtp_angle_r	hip_flexion_l	hip_adduction_l	hip_rotation_l	knee_angle_l	knee_angle_l_beta	ankle_angle_l	subtalar_angle_l	mtp_angle_l	lumbar_extension	lumbar_bending	lumbar_rotation	arm_flex_r	arm_add_r	arm_rot_r	elbow_flex_r	pro_sup_r	wrist_flex_r	wrist_dev_r	arm_flex_l	arm_add_l	arm_rot_l	elbow_flex_l	pro_sup_l	wrist_flex_l	wrist_dev_l
4.259999999999997	0.2763504171772199	2.843379757617999	8.397864946999103	0	0.9399999999999999	0	22.51874687859354	-8.069127603275655	-6.935078495002463	26.0751569065449	0.4550973409933478	0	0	0	22.51874687859354	-8.069127603275655	-6.935078495002463	26.0751569065449	0.4550973409933478	0	0	0	0.4289881794309748	3.130888869077549	7.221881430982005	4.379233529735836	-10.30899026684133	-6.470418951820123	-7.830290587243502	110.4813363207773	0	0	95.44530422248371	-22.20012331241268	3.985447663676686	51.22875446589146	41.53498446157547	0	0
4.279999999999997	0.1454936020837383	2.857084556191251	8.317317934338455	0	0.9399999999999999	0	22.52855853501196	-8.071807786048693	-6.937814461232295	26.08475887828601	0.4552649270149137	0	0	0	22.52855853501196	-8.071807786048693	-6.937814461232295	26.08475887828601	0.4552649270149137	0	0	0	0.2907691509628191	3.165359817284713	7.427348527366354	4.609636491021292	-10.41365086583843	-6.577674552733197	-7.732377476912887	110.5402152866946	0	0	97.09850485367056	-21.46475959253646	4.763926735598387	52.45465021291599	41.19329673303995	0	0
4.299999999999996	0.03054164756132774	2.870721324249809	8.210188438217692	0	0.9399999999999999	0	22.53944778016763	-8.074782508152595	-6.940851499671093	26.09540678987055	0.4554507681305252	0	0	0	22.53944778016763	-8.074782508152595	-6.940851499671093	26.09540678987055	0.4554507681305252	0	0	0	0.1693906985394076	3.196565661336422	7.613607015504192	4.823749111746451	-10.48591370721181	-6.55108907139291	-7.692736831614585	110.5243123035502	0	0	98.69880004293067	-20.70872760466989	5.546510845097147	53.50820739851761	40.61701663100324	0	0
4.319999999999996	-0.03665086407926511	2.886512971821868	8.079150278017883	0	0.9399999999999999	0	22.54841875847561	-8.077229517426995	-6.943351654822166	26.1041835612353	0.4556039516885348	0	0	0	22.54841875847561	-8.077229517426995	-6.943351654822166	26.1041835612353	0.4556039516885348	0	0	0	0.09642980583839474	3.22257535691747	7.784906100245816	4.946913802791903	-10.56233904125315	-6.570862723627236	-7.642719360016669	110.5356360822911	0	0	100.2393461753198	-19.9436144372245	6.313540356678438	54.32535932158493	40.1281086847024	0	0
4.339999999999995	-0.3265803826721458	2.902008075445029	8.006766690611618	0	0.9399999999999999	0	22.55807412904434	-8.079856043364517	-6.946038464548018	26.11364612025131	0.4557691044990285	0	0	0	22.55807412904434	-8.079856043364517	-6.946038464548018	26.11364612025131	0.4557691044990285	0	0	0	-0.2000110336800127	3.278986868514022	7.98639170017298	5.579095274313875	-10.75467155786269	-6.438089432641882	-7.681767873276352	110.3678927071735	0	0	102.209876163323	-19.16052166528419	6.849112274119433	54.90721252867298	39.70798848127708	0	0
4.359999999999995	-0.4592603618939204	2.906362468713405	7.903164411001403	0	0.9399999999999999	0	22.56981190676681	-8.083054654509535	-6.94930877739255	26.12512269878976	0.4559694085813882	0	0	0	22.56981190676681	-8.083054654509535	-6.94930877739255	26.12512269878976	0.4559694085813882	0	0	0	-0.3382679536282441	3.301311227476863	8.125273751047636	5.888761728436977	-10.87674769382607	-6.364612063115791	-7.671334375283223	110.1813942256457	0	0	103.8628102583103	-18.45778958006535	7.479869280362302	54.34027650313512	39.52067836545232	0	0
4.379999999999995	-0.5145864654864094	2.910214984955612	7.850290644556844	0	0.9399999999999999	0	22.67387564028041	-8.103293082434854	-6.973258252159385	26.25172209946831	0.4581789849542803	0	0	0	22.67387564028041	-8.103293082434854	-6.973258252159385	26.25172209946831	0.4581789849542803	0	0	0	-0.4008642312862242	3.313045429543519	8.181593288623286	6.070447015443236	-10.98117919283334	-6.307978510951853	-7.685370254182851	110.1310991495349	0	0	106.6337971236654	-17.0975130431086	9.310599395161626	53.47392235076158	38.88628859956315	0	0
4.399999999999994	-0.6324654412505892	2.91332954391034	7.714656075655552	0	0.9399999999999999	0	22.68614757254928	-8.106616563897797	-6.976667590356612	26.26371005063183	0.4583882141726521	0	0	0	22.68614757254928	-8.106616563897797	-6.976667590356612	26.26371005063183	0.4583882141726521	0	0	0	-0.5255496555946134	3.33071163156477	8.355762775470323	6.326711717002998	-11.12866770607942	-6.287546131941012	-7.665968239602448	110.0756155786689	0	0	108.0843371450485	-16.41910649686861	10.37496845566053	55.56255724610688	38.1035823713357	0	0
4.419999999999994	-0.7404640066419159	2.929399834441101	7.600378907667571	0	0.9399999999999999	0	22.70247173161402	-8.110964327171724	-6.981157956306955	26.27987159411415	0.4586702863186228	0	0	0	22.70247173161402	-8.110964327171724	-6.981157956306955	26.27987159411415	0.4586702863186228	0	0	0	-0.637111981565499	3.360264011350983	8.481043607808189	6.528489065882495	-11.34821805363984	-6.195530629989779	-7.663410203310685	109.9827217793517	0	0	108.2588937730475	-16.48283480235013	10.36456889138588	57.26199993385701	37.65338907753787	0	0
4.439999999999993	-0.842251168116167	2.941232446601778	7.54214380447646	0	0.9399999999999999	0	22.71275235461202	-8.113738529689257	-6.984009049477875	26.28992513282429	0.4588457536705914	0	0	0	22.71275235461202	-8.113738529689257	-6.984009049477875	26.28992513282429	0.4588457536705914	0	0	0	-0.7411943804046328	3.384692740285017	8.572984727208958	6.700865893906171	-11.48938244740382	-6.176387687825615	-7.631167878712986	109.9506457831767	0	0	109.5054266760282	-15.88390252696338	11.31242586034738	56.94092984898052	37.21629989655015	0	0
4.459999999999993	-0.9431924308838535	2.947495012105994	7.493192197408008	0	0.9399999999999999	0	22.7222757957151	-8.116305035196788	-6.986648454382779	26.29924195800953	0.4590083629459066	0	0	0	22.7222757957151	-8.116305035196788	-6.986648454382779	26.29924195800953	0.4590083629459066	0	0	0	-0.8462350197998215	3.403077726062198	8.682240958463128	6.877728255830197	-11.60487065601744	-6.17252090039008	-7.630722814330731	109.8920987376802	0	0	110.6780313952878	-15.29264311930132	12.15290609783265	57.40145042720189	36.7350647591588	0	0
4.479999999999992	-1.028287562773075	2.969365593853331	7.45735758115354	0	0.9399999999999999	0	22.73118695804137	-8.118704344400093	-6.989117153663204	26.30796065244962	0.4591605328703615	0	0	0	22.73118695804137	-8.118704344400093	-6.989117153663204	26.30796065244962	0.4591605328703615	0	0	0	-0.9331984282615792	3.434717866346328	8.781670987666043	7.025572237583351	-11.71188807303442	-6.206292275135509	-7.671243954556098	109.8680285290313	0	0	111.7867582655554	-14.78928320362852	12.76727828444806	57.8276264397501	36.41498428954102	0	0
